<svg width="309" height="56" viewBox="0 0 309 56" fill="none" xmlns="http://www.w3.org/2000/svg">
<path d="M39.8 18.1205V27.8H4H3.8V28V32V32.2001H4H7.8V48V48.2001H8H12H12.2V48V32.2001H35.8V48V48.2001H36H40H40.2V48V32.2001H44H44.2V32V18.1205C44.2039 16.4707 43.7459 14.8526 42.878 13.4495C42.0101 12.0464 40.7668 10.9142 39.2889 10.1809C37.7614 9.42003 36.0463 9.11757 34.3507 9.31C32.701 9.49723 31.1383 10.1451 29.841 11.1782C28.3754 10.3494 26.6806 10.0138 25.0074 10.2234C23.2883 10.4388 21.6889 11.2176 20.4591 12.4381L20.4586 12.4386L19.0386 13.8586L18.8972 14L19.0386 14.1415L29.8586 24.9615L30 25.1029L30.1414 24.9615L31.5614 23.5415L31.562 23.5409C32.7624 22.3313 33.536 20.7634 33.7656 19.0747C33.9869 17.4475 33.6914 15.7935 32.9235 14.3455C33.5609 13.9419 34.2908 13.7053 35.0457 13.659C35.8605 13.609 36.6734 13.7826 37.3967 14.161C38.12 14.5394 38.7262 15.1083 39.1498 15.8061C39.5733 16.5039 39.7982 17.3042 39.8 18.1205Z" fill="#F0BB00" stroke="#F0BB00" stroke-width="0.4"/>
<path d="M61.2543 34V19.25H66.7343C67.7276 19.25 68.6376 19.4333 69.4643 19.8C70.291 20.1667 71.0043 20.68 71.6043 21.34C72.2043 22 72.6676 22.7767 72.9943 23.67C73.321 24.5633 73.4843 25.5367 73.4843 26.59C73.4843 27.6433 73.321 28.62 72.9943 29.52C72.6676 30.42 72.2043 31.2067 71.6043 31.88C71.0043 32.5467 70.291 33.0667 69.4643 33.44C68.6376 33.8133 67.7276 34 66.7343 34H61.2543ZM65.2943 32.82L63.4743 31H66.1943C66.7676 31 67.2943 30.8233 67.7743 30.47C68.261 30.11 68.651 29.6 68.9443 28.94C69.2376 28.28 69.3843 27.4967 69.3843 26.59C69.3843 25.6767 69.2376 24.8967 68.9443 24.25C68.651 23.6033 68.261 23.11 67.7743 22.77C67.2943 22.4233 66.7676 22.25 66.1943 22.25H63.4743L65.2943 20.43V32.82ZM76.7977 29.79V27.39H83.0577L82.7577 27.91C82.7577 27.8567 82.7577 27.8 82.7577 27.74C82.7577 27.6733 82.7577 27.6167 82.7577 27.57C82.7577 27.3433 82.6911 27.11 82.5577 26.87C82.4311 26.6233 82.2211 26.4167 81.9277 26.25C81.6411 26.0833 81.2544 26 80.7677 26C80.2944 26 79.8977 26.1 79.5777 26.3C79.2577 26.5 79.0177 26.7967 78.8577 27.19C78.6977 27.5767 78.6177 28.05 78.6177 28.61C78.6177 29.1967 78.6944 29.6967 78.8477 30.11C79.0011 30.5233 79.2444 30.84 79.5777 31.06C79.9111 31.2733 80.3477 31.38 80.8877 31.38C81.2077 31.38 81.4811 31.3567 81.7077 31.31C81.9344 31.2633 82.1144 31.2033 82.2477 31.13C82.3877 31.0567 82.4911 30.9767 82.5577 30.89C82.6311 30.8033 82.6744 30.72 82.6877 30.64H86.6677C86.6211 31.1067 86.4511 31.5567 86.1577 31.99C85.8711 32.4233 85.4744 32.8133 84.9677 33.16C84.4611 33.5 83.8511 33.77 83.1377 33.97C82.4244 34.1633 81.6177 34.26 80.7177 34.26C79.4711 34.26 78.3911 34.0267 77.4777 33.56C76.5644 33.0867 75.8611 32.4333 75.3677 31.6C74.8744 30.76 74.6277 29.7967 74.6277 28.71C74.6277 27.5967 74.8811 26.6233 75.3877 25.79C75.8944 24.9567 76.6044 24.31 77.5177 23.85C78.4377 23.39 79.5044 23.16 80.7177 23.16C81.9711 23.16 83.0511 23.3967 83.9577 23.87C84.8711 24.3367 85.5744 25.0033 86.0677 25.87C86.5611 26.73 86.8077 27.7533 86.8077 28.94C86.8077 29.14 86.8044 29.31 86.7977 29.45C86.7911 29.59 86.7811 29.7033 86.7677 29.79H76.7977ZM92.9137 34.26C92.287 34.26 91.667 34.1833 91.0537 34.03C90.4403 33.8833 89.8803 33.66 89.3737 33.36C88.8737 33.0533 88.4703 32.67 88.1637 32.21C87.8637 31.75 87.7137 31.21 87.7137 30.59C87.7137 30.5767 87.7137 30.56 87.7137 30.54C87.7137 30.52 87.7137 30.5033 87.7137 30.49H91.7037C91.7037 30.5033 91.7037 30.52 91.7037 30.54C91.7037 30.56 91.7037 30.5767 91.7037 30.59C91.7037 30.87 91.8237 31.0667 92.0637 31.18C92.3037 31.2933 92.627 31.35 93.0337 31.35C93.1803 31.35 93.3503 31.3333 93.5437 31.3C93.737 31.26 93.9037 31.1967 94.0437 31.11C94.1903 31.0167 94.2637 30.8967 94.2637 30.75C94.2637 30.53 94.1103 30.3767 93.8037 30.29C93.5037 30.1967 92.977 30.09 92.2237 29.97C91.7703 29.8967 91.2903 29.79 90.7837 29.65C90.277 29.5033 89.8003 29.3067 89.3537 29.06C88.907 28.8067 88.5437 28.4867 88.2637 28.1C87.9837 27.7133 87.8437 27.2367 87.8437 26.67C87.8437 25.8967 88.077 25.25 88.5437 24.73C89.017 24.21 89.6403 23.82 90.4137 23.56C91.1937 23.2933 92.0437 23.16 92.9637 23.16C93.837 23.16 94.657 23.31 95.4237 23.61C96.1903 23.9033 96.8137 24.3233 97.2937 24.87C97.7737 25.4167 98.0137 26.0633 98.0137 26.81C98.0137 26.8233 98.0137 26.84 98.0137 26.86C98.0137 26.88 98.0137 26.8967 98.0137 26.91H94.0637C94.0637 26.8967 94.0637 26.88 94.0637 26.86C94.0637 26.84 94.0637 26.8233 94.0637 26.81C94.0637 26.6233 94.0037 26.4767 93.8837 26.37C93.7703 26.2567 93.627 26.1733 93.4537 26.12C93.2803 26.0667 93.107 26.04 92.9337 26.04C92.8003 26.04 92.6403 26.0567 92.4537 26.09C92.2737 26.1167 92.117 26.17 91.9837 26.25C91.8503 26.33 91.7837 26.4467 91.7837 26.6C91.7837 26.7333 91.867 26.8467 92.0337 26.94C92.207 27.0333 92.4403 27.1133 92.7337 27.18C93.0337 27.24 93.367 27.2967 93.7337 27.35C94.1137 27.4033 94.5537 27.49 95.0537 27.61C95.5537 27.73 96.0403 27.91 96.5137 28.15C96.987 28.3833 97.377 28.7033 97.6837 29.11C97.997 29.51 98.1537 30.0233 98.1537 30.65C98.1537 31.3233 97.997 31.89 97.6837 32.35C97.377 32.81 96.9637 33.18 96.4437 33.46C95.9303 33.74 95.367 33.9433 94.7537 34.07C94.1403 34.1967 93.527 34.26 92.9137 34.26ZM99.6113 34V18.37H103.431V26.9L102.741 26.52L106.101 23.38H110.971L105.601 28.23L106.401 26.84L110.791 34H106.581L103.751 28.93L104.831 28.9L103.061 30.55L103.431 28.86V34H99.6113ZM115.863 34.26C115.236 34.26 114.616 34.1833 114.003 34.03C113.39 33.8833 112.83 33.66 112.323 33.36C111.823 33.0533 111.42 32.67 111.113 32.21C110.813 31.75 110.663 31.21 110.663 30.59C110.663 30.5767 110.663 30.56 110.663 30.54C110.663 30.52 110.663 30.5033 110.663 30.49H114.653C114.653 30.5033 114.653 30.52 114.653 30.54C114.653 30.56 114.653 30.5767 114.653 30.59C114.653 30.87 114.773 31.0667 115.013 31.18C115.253 31.2933 115.576 31.35 115.983 31.35C116.13 31.35 116.3 31.3333 116.493 31.3C116.686 31.26 116.853 31.1967 116.993 31.11C117.14 31.0167 117.213 30.8967 117.213 30.75C117.213 30.53 117.06 30.3767 116.753 30.29C116.453 30.1967 115.926 30.09 115.173 29.97C114.72 29.8967 114.24 29.79 113.733 29.65C113.226 29.5033 112.75 29.3067 112.303 29.06C111.856 28.8067 111.493 28.4867 111.213 28.1C110.933 27.7133 110.793 27.2367 110.793 26.67C110.793 25.8967 111.026 25.25 111.493 24.73C111.966 24.21 112.59 23.82 113.363 23.56C114.143 23.2933 114.993 23.16 115.913 23.16C116.786 23.16 117.606 23.31 118.373 23.61C119.14 23.9033 119.763 24.3233 120.243 24.87C120.723 25.4167 120.963 26.0633 120.963 26.81C120.963 26.8233 120.963 26.84 120.963 26.86C120.963 26.88 120.963 26.8967 120.963 26.91H117.013C117.013 26.8967 117.013 26.88 117.013 26.86C117.013 26.84 117.013 26.8233 117.013 26.81C117.013 26.6233 116.953 26.4767 116.833 26.37C116.72 26.2567 116.576 26.1733 116.403 26.12C116.23 26.0667 116.056 26.04 115.883 26.04C115.75 26.04 115.59 26.0567 115.403 26.09C115.223 26.1167 115.066 26.17 114.933 26.25C114.8 26.33 114.733 26.4467 114.733 26.6C114.733 26.7333 114.816 26.8467 114.983 26.94C115.156 27.0333 115.39 27.1133 115.683 27.18C115.983 27.24 116.316 27.2967 116.683 27.35C117.063 27.4033 117.503 27.49 118.003 27.61C118.503 27.73 118.99 27.91 119.463 28.15C119.936 28.3833 120.326 28.7033 120.633 29.11C120.946 29.51 121.103 30.0233 121.103 30.65C121.103 31.3233 120.946 31.89 120.633 32.35C120.326 32.81 119.913 33.18 119.393 33.46C118.88 33.74 118.316 33.9433 117.703 34.07C117.09 34.1967 116.476 34.26 115.863 34.26ZM126.961 34L130.391 19.25H136.801L140.211 34H136.081L133.591 21.66H133.611L131.091 34H126.961ZM129.961 30.9V27.87H137.241V30.9H129.961ZM148.994 34V29.87C148.994 29.6567 148.994 29.4433 148.994 29.23C148.994 29.0167 148.994 28.8333 148.994 28.68C148.994 28.3133 148.96 27.9633 148.894 27.63C148.834 27.2967 148.69 27.0233 148.464 26.81C148.244 26.5967 147.89 26.49 147.404 26.49C146.984 26.49 146.644 26.5767 146.384 26.75C146.124 26.9233 145.934 27.1733 145.814 27.5C145.694 27.8267 145.634 28.22 145.634 28.68L144.854 27.88C144.854 26.9067 145.05 26.07 145.444 25.37C145.837 24.6633 146.374 24.12 147.054 23.74C147.734 23.3533 148.5 23.16 149.354 23.16C150.26 23.16 150.98 23.3467 151.514 23.72C152.047 24.0867 152.43 24.5967 152.664 25.25C152.904 25.9033 153.024 26.65 153.024 27.49C153.024 27.8567 153.024 28.2767 153.024 28.75C153.024 29.2233 153.024 29.7233 153.024 30.25V34H148.994ZM141.604 34V23.38H145.634V34H141.604ZM159.394 34.26C158.507 34.26 157.68 34.05 156.914 33.63C156.154 33.2033 155.54 32.5733 155.074 31.74C154.607 30.9 154.374 29.86 154.374 28.62C154.374 27.4467 154.614 26.4533 155.094 25.64C155.574 24.8267 156.197 24.21 156.964 23.79C157.73 23.37 158.54 23.16 159.394 23.16C160.247 23.16 161.017 23.3833 161.704 23.83C162.39 24.2767 162.937 24.8867 163.344 25.66C163.75 26.4267 163.954 27.3033 163.954 28.29C163.954 28.33 163.954 28.37 163.954 28.41C163.954 28.4433 163.954 28.48 163.954 28.52H162.534C162.534 28.5 162.534 28.48 162.534 28.46C162.534 28.4333 162.534 28.41 162.534 28.39C162.534 27.9433 162.434 27.5767 162.234 27.29C162.034 27.0033 161.78 26.79 161.474 26.65C161.174 26.5033 160.867 26.43 160.554 26.43C160.047 26.43 159.584 26.6 159.164 26.94C158.744 27.2733 158.534 27.8333 158.534 28.62C158.534 29.4067 158.744 29.9767 159.164 30.33C159.584 30.6833 160.047 30.86 160.554 30.86C160.874 30.86 161.184 30.7867 161.484 30.64C161.79 30.4867 162.04 30.26 162.234 29.96C162.434 29.66 162.534 29.29 162.534 28.85L163.954 28.95C163.954 29.93 163.75 30.8233 163.344 31.63C162.937 32.43 162.39 33.07 161.704 33.55C161.017 34.0233 160.247 34.26 159.394 34.26ZM162.534 34V18.37H166.574V34H162.534ZM186.527 28.43C186.527 29.1033 186.397 29.7833 186.137 30.47C185.884 31.15 185.494 31.7767 184.967 32.35C184.447 32.9233 183.784 33.3867 182.977 33.74C182.177 34.0867 181.227 34.26 180.127 34.26C178.68 34.26 177.44 33.9367 176.407 33.29C175.38 32.6367 174.594 31.7367 174.047 30.59C173.507 29.4433 173.237 28.12 173.237 26.62C173.237 25.12 173.507 23.8 174.047 22.66C174.594 21.5133 175.38 20.6167 176.407 19.97C177.44 19.3233 178.68 19 180.127 19C181.327 19 182.35 19.2033 183.197 19.61C184.05 20.0167 184.734 20.55 185.247 21.21C185.767 21.87 186.127 22.5767 186.327 23.33C186.46 23.8433 186.527 24.34 186.527 24.82H182.477C182.477 24.6067 182.464 24.42 182.437 24.26C182.377 23.8267 182.247 23.45 182.047 23.13C181.847 22.81 181.584 22.5633 181.257 22.39C180.937 22.21 180.56 22.12 180.127 22.12C179.607 22.12 179.137 22.2733 178.717 22.58C178.297 22.8867 177.96 23.37 177.707 24.03C177.46 24.69 177.337 25.5533 177.337 26.62C177.337 27.68 177.46 28.5433 177.707 29.21C177.96 29.8767 178.297 30.3667 178.717 30.68C179.137 30.9933 179.607 31.15 180.127 31.15C180.5 31.15 180.83 31.0833 181.117 30.95C181.41 30.81 181.657 30.6167 181.857 30.37C182.057 30.1233 182.21 29.8367 182.317 29.51C182.424 29.1767 182.477 28.8167 182.477 28.43H186.527ZM195.615 34V30.34C195.615 30.2333 195.615 30.0733 195.615 29.86C195.615 29.64 195.615 29.42 195.615 29.2C195.615 28.9733 195.615 28.8 195.615 28.68C195.615 28.0067 195.515 27.4733 195.315 27.08C195.115 26.6867 194.685 26.49 194.025 26.49C193.598 26.49 193.255 26.5767 192.995 26.75C192.735 26.9233 192.545 27.1733 192.425 27.5C192.311 27.8267 192.255 28.22 192.255 28.68L191.475 27.88C191.475 26.9067 191.658 26.07 192.025 25.37C192.391 24.6633 192.905 24.12 193.565 23.74C194.225 23.3533 194.998 23.16 195.885 23.16C197.198 23.16 198.151 23.54 198.745 24.3C199.345 25.06 199.645 26.1233 199.645 27.49C199.645 27.83 199.645 28.2533 199.645 28.76C199.645 29.26 199.645 29.8733 199.645 30.6V34H195.615ZM188.225 34V18.37H192.255V34H188.225ZM205.075 34.24C204.315 34.24 203.635 34.12 203.035 33.88C202.435 33.6333 201.962 33.28 201.615 32.82C201.268 32.3533 201.095 31.7867 201.095 31.12C201.095 30.3333 201.318 29.7 201.765 29.22C202.218 28.74 202.795 28.3767 203.495 28.13C204.202 27.8833 204.932 27.7267 205.685 27.66C206.758 27.56 207.482 27.4733 207.855 27.4C208.228 27.3267 208.415 27.1967 208.415 27.01C208.415 27.0033 208.415 27 208.415 27C208.415 26.7533 208.265 26.5433 207.965 26.37C207.672 26.19 207.278 26.1 206.785 26.1C206.252 26.1 205.855 26.2 205.595 26.4C205.335 26.5933 205.205 26.8767 205.205 27.25H201.235C201.235 26.3567 201.485 25.6067 201.985 25C202.485 24.3933 203.155 23.9367 203.995 23.63C204.842 23.3167 205.782 23.16 206.815 23.16C207.795 23.16 208.712 23.3067 209.565 23.6C210.425 23.8933 211.122 24.3433 211.655 24.95C212.188 25.55 212.455 26.32 212.455 27.26C212.455 27.4 212.455 27.54 212.455 27.68C212.455 27.82 212.455 27.96 212.455 28.1V31.39C212.455 31.6833 212.462 31.9667 212.475 32.24C212.488 32.5133 212.528 32.7667 212.595 33C212.668 33.2467 212.765 33.46 212.885 33.64C213.005 33.8133 213.102 33.9333 213.175 34H209.235C209.175 33.94 209.088 33.83 208.975 33.67C208.862 33.51 208.768 33.3267 208.695 33.12C208.595 32.82 208.522 32.54 208.475 32.28C208.435 32.0133 208.415 31.69 208.415 31.31L209.295 31.92C209.115 32.4067 208.808 32.8233 208.375 33.17C207.948 33.5167 207.445 33.7833 206.865 33.97C206.292 34.15 205.695 34.24 205.075 34.24ZM206.275 31.38C206.622 31.38 206.962 31.3033 207.295 31.15C207.635 30.9967 207.918 30.7433 208.145 30.39C208.372 30.03 208.485 29.5433 208.485 28.93V28.55L209.515 29.38C209.075 29.5333 208.585 29.6633 208.045 29.77C207.505 29.87 206.988 29.9467 206.495 30C206.035 30.0467 205.692 30.1233 205.465 30.23C205.245 30.33 205.135 30.4933 205.135 30.72C205.135 30.9467 205.235 31.1133 205.435 31.22C205.635 31.3267 205.915 31.38 206.275 31.38ZM214.087 34V23.38H218.077V34H214.087ZM216.077 22.13C215.484 22.13 214.964 21.9767 214.517 21.67C214.077 21.3633 213.857 20.9267 213.857 20.36C213.857 19.7867 214.077 19.35 214.517 19.05C214.964 18.7433 215.484 18.59 216.077 18.59C216.671 18.59 217.187 18.7433 217.627 19.05C218.074 19.35 218.297 19.7867 218.297 20.36C218.297 20.9333 218.074 21.3733 217.627 21.68C217.187 21.98 216.671 22.13 216.077 22.13ZM219.807 34V23.38H223.847V27.31L223.157 26.77C223.257 26.2033 223.413 25.6967 223.627 25.25C223.84 24.8033 224.107 24.4267 224.427 24.12C224.753 23.8067 225.127 23.57 225.547 23.41C225.973 23.2433 226.447 23.16 226.967 23.16C227.4 23.16 227.727 23.19 227.947 23.25C228.173 23.3033 228.313 23.3467 228.367 23.38L227.817 26.9C227.757 26.8667 227.623 26.8167 227.417 26.75C227.21 26.6767 226.96 26.64 226.667 26.64C226.147 26.64 225.707 26.7233 225.347 26.89C224.987 27.05 224.697 27.27 224.477 27.55C224.257 27.8233 224.097 28.1333 223.997 28.48C223.897 28.82 223.847 29.1667 223.847 29.52V34H219.807ZM234.222 34.26C233.596 34.26 232.976 34.1833 232.362 34.03C231.749 33.8833 231.189 33.66 230.682 33.36C230.182 33.0533 229.779 32.67 229.472 32.21C229.172 31.75 229.022 31.21 229.022 30.59C229.022 30.5767 229.022 30.56 229.022 30.54C229.022 30.52 229.022 30.5033 229.022 30.49H233.012C233.012 30.5033 233.012 30.52 233.012 30.54C233.012 30.56 233.012 30.5767 233.012 30.59C233.012 30.87 233.132 31.0667 233.372 31.18C233.612 31.2933 233.936 31.35 234.342 31.35C234.489 31.35 234.659 31.3333 234.852 31.3C235.046 31.26 235.212 31.1967 235.352 31.11C235.499 31.0167 235.572 30.8967 235.572 30.75C235.572 30.53 235.419 30.3767 235.112 30.29C234.812 30.1967 234.286 30.09 233.532 29.97C233.079 29.8967 232.599 29.79 232.092 29.65C231.586 29.5033 231.109 29.3067 230.662 29.06C230.216 28.8067 229.852 28.4867 229.572 28.1C229.292 27.7133 229.152 27.2367 229.152 26.67C229.152 25.8967 229.386 25.25 229.852 24.73C230.326 24.21 230.949 23.82 231.722 23.56C232.502 23.2933 233.352 23.16 234.272 23.16C235.146 23.16 235.966 23.31 236.732 23.61C237.499 23.9033 238.122 24.3233 238.602 24.87C239.082 25.4167 239.322 26.0633 239.322 26.81C239.322 26.8233 239.322 26.84 239.322 26.86C239.322 26.88 239.322 26.8967 239.322 26.91H235.372C235.372 26.8967 235.372 26.88 235.372 26.86C235.372 26.84 235.372 26.8233 235.372 26.81C235.372 26.6233 235.312 26.4767 235.192 26.37C235.079 26.2567 234.936 26.1733 234.762 26.12C234.589 26.0667 234.416 26.04 234.242 26.04C234.109 26.04 233.949 26.0567 233.762 26.09C233.582 26.1167 233.426 26.17 233.292 26.25C233.159 26.33 233.092 26.4467 233.092 26.6C233.092 26.7333 233.176 26.8467 233.342 26.94C233.516 27.0333 233.749 27.1133 234.042 27.18C234.342 27.24 234.676 27.2967 235.042 27.35C235.422 27.4033 235.862 27.49 236.362 27.61C236.862 27.73 237.349 27.91 237.822 28.15C238.296 28.3833 238.686 28.7033 238.992 29.11C239.306 29.51 239.462 30.0233 239.462 30.65C239.462 31.3233 239.306 31.89 238.992 32.35C238.686 32.81 238.272 33.18 237.752 33.46C237.239 33.74 236.676 33.9433 236.062 34.07C235.449 34.1967 234.836 34.26 234.222 34.26ZM246.02 34V19.25H251.5C252.493 19.25 253.403 19.4333 254.23 19.8C255.057 20.1667 255.77 20.68 256.37 21.34C256.97 22 257.433 22.7767 257.76 23.67C258.087 24.5633 258.25 25.5367 258.25 26.59C258.25 27.6433 258.087 28.62 257.76 29.52C257.433 30.42 256.97 31.2067 256.37 31.88C255.77 32.5467 255.057 33.0667 254.23 33.44C253.403 33.8133 252.493 34 251.5 34H246.02ZM250.06 32.82L248.24 31H250.96C251.533 31 252.06 30.8233 252.54 30.47C253.027 30.11 253.417 29.6 253.71 28.94C254.003 28.28 254.15 27.4967 254.15 26.59C254.15 25.6767 254.003 24.8967 253.71 24.25C253.417 23.6033 253.027 23.11 252.54 22.77C252.06 22.4233 251.533 22.25 250.96 22.25H248.24L250.06 20.43V32.82ZM261.563 29.79V27.39H267.823L267.523 27.91C267.523 27.8567 267.523 27.8 267.523 27.74C267.523 27.6733 267.523 27.6167 267.523 27.57C267.523 27.3433 267.457 27.11 267.323 26.87C267.197 26.6233 266.987 26.4167 266.693 26.25C266.407 26.0833 266.02 26 265.533 26C265.06 26 264.663 26.1 264.343 26.3C264.023 26.5 263.783 26.7967 263.623 27.19C263.463 27.5767 263.383 28.05 263.383 28.61C263.383 29.1967 263.46 29.6967 263.613 30.11C263.767 30.5233 264.01 30.84 264.343 31.06C264.677 31.2733 265.113 31.38 265.653 31.38C265.973 31.38 266.247 31.3567 266.473 31.31C266.7 31.2633 266.88 31.2033 267.013 31.13C267.153 31.0567 267.257 30.9767 267.323 30.89C267.397 30.8033 267.44 30.72 267.453 30.64H271.433C271.387 31.1067 271.217 31.5567 270.923 31.99C270.637 32.4233 270.24 32.8133 269.733 33.16C269.227 33.5 268.617 33.77 267.903 33.97C267.19 34.1633 266.383 34.26 265.483 34.26C264.237 34.26 263.157 34.0267 262.243 33.56C261.33 33.0867 260.627 32.4333 260.133 31.6C259.64 30.76 259.393 29.7967 259.393 28.71C259.393 27.5967 259.647 26.6233 260.153 25.79C260.66 24.9567 261.37 24.31 262.283 23.85C263.203 23.39 264.27 23.16 265.483 23.16C266.737 23.16 267.817 23.3967 268.723 23.87C269.637 24.3367 270.34 25.0033 270.833 25.87C271.327 26.73 271.573 27.7533 271.573 28.94C271.573 29.14 271.57 29.31 271.563 29.45C271.557 29.59 271.547 29.7033 271.533 29.79H261.563ZM273.029 38.37V23.38H277.069V38.37H273.029ZM280.209 34.26C279.363 34.26 278.593 34.0233 277.899 33.55C277.213 33.07 276.666 32.43 276.259 31.63C275.853 30.8233 275.649 29.93 275.649 28.95C275.649 28.9167 275.649 28.8833 275.649 28.85C275.649 28.8167 275.649 28.7833 275.649 28.75L277.069 28.72C277.069 28.74 277.069 28.7633 277.069 28.79C277.069 28.81 277.069 28.83 277.069 28.85C277.069 29.29 277.166 29.66 277.359 29.96C277.559 30.26 277.809 30.4867 278.109 30.64C278.416 30.7867 278.729 30.86 279.049 30.86C279.556 30.86 280.019 30.6833 280.439 30.33C280.859 29.9767 281.069 29.4067 281.069 28.62C281.069 27.8333 280.859 27.2733 280.439 26.94C280.026 26.6 279.563 26.43 279.049 26.43C278.736 26.43 278.426 26.5033 278.119 26.65C277.819 26.79 277.569 27.0033 277.369 27.29C277.169 27.5767 277.069 27.9433 277.069 28.39L275.649 28.29C275.649 27.3033 275.853 26.4267 276.259 25.66C276.666 24.8867 277.213 24.2767 277.899 23.83C278.593 23.3833 279.363 23.16 280.209 23.16C281.069 23.16 281.879 23.37 282.639 23.79C283.406 24.21 284.029 24.8267 284.509 25.64C284.989 26.4533 285.229 27.4467 285.229 28.62C285.229 29.86 284.996 30.9 284.529 31.74C284.063 32.5733 283.449 33.2033 282.689 33.63C281.929 34.05 281.103 34.26 280.209 34.26ZM292.192 34.25C290.992 34.25 289.935 34.0167 289.022 33.55C288.115 33.0833 287.405 32.4333 286.892 31.6C286.385 30.7667 286.132 29.8 286.132 28.7C286.132 27.6 286.385 26.6333 286.892 25.8C287.405 24.9667 288.115 24.32 289.022 23.86C289.935 23.3933 290.992 23.16 292.192 23.16C293.392 23.16 294.445 23.3933 295.352 23.86C296.265 24.32 296.975 24.9667 297.482 25.8C297.995 26.6333 298.252 27.6 298.252 28.7C298.252 29.8 297.995 30.7667 297.482 31.6C296.975 32.4333 296.265 33.0833 295.352 33.55C294.445 34.0167 293.392 34.25 292.192 34.25ZM292.192 31.2C292.605 31.2 292.958 31.0967 293.252 30.89C293.545 30.6833 293.768 30.3933 293.922 30.02C294.082 29.6467 294.162 29.2067 294.162 28.7C294.162 28.1933 294.082 27.7567 293.922 27.39C293.768 27.0167 293.545 26.73 293.252 26.53C292.958 26.3233 292.605 26.22 292.192 26.22C291.785 26.22 291.432 26.3233 291.132 26.53C290.838 26.73 290.612 27.0167 290.452 27.39C290.298 27.7567 290.222 28.1933 290.222 28.7C290.222 29.2067 290.298 29.6467 290.452 30.02C290.612 30.3933 290.838 30.6833 291.132 30.89C291.432 31.0967 291.785 31.2 292.192 31.2ZM305.609 34.26C305.149 34.26 304.662 34.2233 304.149 34.15C303.642 34.0833 303.166 33.94 302.719 33.72C302.272 33.5 301.909 33.17 301.629 32.73C301.349 32.2833 301.209 31.6867 301.209 30.94C301.209 30.7867 301.209 30.6333 301.209 30.48C301.209 30.3267 301.209 30.1767 301.209 30.03V26.38H298.839V23.38H298.889C299.409 23.38 299.822 23.3567 300.129 23.31C300.442 23.2633 300.676 23.15 300.829 22.97C300.982 22.79 301.082 22.5067 301.129 22.12C301.182 21.7333 301.209 21.2 301.209 20.52V19.9H305.249V23.38H308.179V26.38H305.249V29.31C305.249 29.41 305.249 29.51 305.249 29.61C305.249 29.7033 305.249 29.8 305.249 29.9C305.249 30.2867 305.296 30.6133 305.389 30.88C305.482 31.1467 305.732 31.28 306.139 31.28C306.379 31.28 306.606 31.2567 306.819 31.21C307.032 31.1633 307.192 31.1167 307.299 31.07V33.98C307.146 34.0467 306.922 34.11 306.629 34.17C306.342 34.23 306.002 34.26 305.609 34.26Z" fill="#F0BB00"/>
</svg>
