<svg width="22" height="22" viewBox="0 0 22 22" fill="none" xmlns="http://www.w3.org/2000/svg">
<g clip-path="url(#clip0_167_187)">
<path d="M14.3301 10.8123L14.1416 11.0008L14.3301 11.1894L20.9299 17.7889L20.93 17.7891C21.5548 18.4128 21.555 19.4261 20.9299 20.0515C20.9298 20.0515 20.9298 20.0515 20.9298 20.0515L20.05 20.9313L20.0499 20.9315C19.4261 21.5562 18.4128 21.5565 17.7874 20.9313C17.7874 20.9313 17.7874 20.9313 17.7874 20.9313L11.1879 14.3316L10.9994 14.143L10.8108 14.3316L4.21106 20.9313L4.21091 20.9315C3.5871 21.5563 2.57384 21.5565 1.94869 20.9313L1.06886 20.0515L1.06869 20.0513C0.443728 19.4275 0.443474 18.4143 1.06886 17.7889L7.66838 11.1894L7.85694 11.0008L7.66838 10.8123L1.0675 4.21138L1.06735 4.21123C0.442579 3.58744 0.442325 2.57416 1.06752 1.94876L1.94855 1.06911L1.94884 1.06881C2.57264 0.444033 3.58589 0.443815 4.21104 1.06894C4.21104 1.06895 4.21105 1.06895 4.21106 1.06896L10.8108 7.66983L10.9993 7.85842L11.1879 7.66984L17.7874 1.07033L17.7876 1.07015C18.4114 0.445193 19.4246 0.444939 20.05 1.07033L20.9299 1.95016L20.93 1.9503C21.5548 2.57411 21.555 3.58738 20.9299 4.21252L14.3301 10.8123Z" fill="white" stroke="#162B5F" stroke-width="0.533333"/>
</g>
<defs>
<clipPath id="clip0_167_187">
<rect width="21.3333" height="21.3333" fill="white" transform="translate(0.332031 0.333496)"/>
</clipPath>
</defs>
</svg>
