<svg width="32" height="33" viewBox="0 0 32 33" fill="none" xmlns="http://www.w3.org/2000/svg">
<path d="M15.5571 11.1693C15.3233 11.1679 15.0915 11.2128 14.875 11.3012C14.6586 11.3896 14.4617 11.5198 14.2957 11.6845L7.18946 18.7907C7.02382 18.9564 6.89242 19.153 6.80278 19.3695C6.71313 19.5859 6.66699 19.8179 6.66699 20.0521C6.66699 20.2864 6.71313 20.5183 6.80278 20.7348C6.89242 20.9512 7.02382 21.1478 7.18946 21.3135C7.35511 21.4791 7.55176 21.6105 7.76818 21.7002C7.9846 21.7898 8.21657 21.8359 8.45082 21.8359C8.68508 21.8359 8.91704 21.7898 9.13347 21.7002C9.34989 21.6105 9.54654 21.4791 9.71218 21.3135L15.5571 15.433L21.4197 21.0825C21.5832 21.2642 21.7823 21.4103 22.0048 21.5115C22.2272 21.6128 22.4682 21.667 22.7125 21.6709C22.9569 21.6748 23.1994 21.6282 23.425 21.534C23.6505 21.4399 23.8542 21.3002 24.0233 21.1238C24.1924 20.9473 24.3233 20.7379 24.4078 20.5085C24.4922 20.2792 24.5285 20.0349 24.5142 19.7909C24.4999 19.5469 24.4355 19.3085 24.3249 19.0905C24.2143 18.8726 24.0599 18.6798 23.8714 18.5243L16.7651 11.6667C16.4402 11.3535 16.0083 11.1757 15.5571 11.1693Z" fill="#000000"/>
</svg>
